 http://img215.imageshack.us/img215/6806/e93eee.jpg

Country.......: USA
Genre.........: Drama, Sport
Date release..: 08.04.2011 [World]
Director......: Sean McNamara
Writers.......: Sean McNamara, Deborah Schwartz
Duration......: 106 min.
More..........: http://www.imdb.com/title/tt1596346
Trailer.......: http://www.imdb.com/video/imdb/vi1864210969
Trailer.......:

Pilot :
A teenage surfer girl summons the courage to go back into the ocean after losing an arm in a shark attack. 

Cats :
AnnaSophia Robb   	 ...  	Bethany Hamilton
Dennis Quaid 	... 	Tom Hamilton
Helen Hunt 	... 	Cheri Hamilton
Carrie Underwood 	... 	Sarah Hill
Ross Thomas 	... 	Noah Hamilton
Lorraine Nicholson 	... 	Alana Blanchard
Kevin Sorbo 	... 	Holt Blanchard
Cody Gomes 	... 	Keoki
Sonya Balmores 	... 	Malina Birch
Beau Hodge 	... 	Nationals Surf Commentator #2
Rocky Canon 	... 	Regionals Surf Commentator #1
Kaipo Guerrero 	... 	Regionals Surf Commentator #2
Dylan Slater 	... 	Turtle Bay Invitational Commentator
Chris Brochu 	... 	Timmy
Christie Brooke 	... 	Bethany Fan 

Data Technical :
!!! SAMPLE !!!
Audio.....: English
Subtitles.: None
Format                           : AVI
Format/Info                      : Audio Video Interleave
Format profile                   : OpenDML
File size                        : 1.64 GiB
Duration                         : 1h 46mn
Overall bit rate                 : 2 212 Kbps
Video
ID                               : 0
Format                           : MPEG-4 Visual
Format profile                   : Simple@L3
Format settings, BVOP            : No
Format settings, QPel            : No
Format settings, GMC             : No warppoints
Format settings, Matrix          : Default (H.263)
Codec ID                         : XVID
Codec ID/Hint                    : XviD
Duration                         : 1h 46mn
Bit rate                         : 2 066 Kbps
Width                            : 720 pixels
Height                           : 480 pixels
Display aspect ratio             : 3:2
Frame rate                       : 29.970 fps
Original frame rate              : 29.000 fps
Standard                         : NTSC
Color space                      : YUV
Chroma subsampling               : 4:2:0
Bit depth                        : 8 bits
Scan type                        : Progressive
Bits/(Pixel*Frame)               : 0.199
Stream size                      : 1.53 GiB (93%)
Writing library                  : XviD 1.2.1 (UTC 2008-12-04)
Audio
ID                               : 1
Format                           : MPEG Audio
Format version                   : Version 1
Format profile                   : Layer 3
Mode                             : Joint stereo
Mode extension                   : MS Stereo
Codec ID                         : 55
Codec ID/Hint                    : MP3
Duration                         : 43mn 42s
Bit rate mode                    : Constant
Bit rate                         : 128 Kbps
Channel(s)                       : 2 channels
Sampling rate                    : 44.1 KHz
Stream size                      : 40.0 MiB (2%)
Alignment                        : Aligned on interleaves
Interleave, duration             : 64 ms (1.90 video frames)
Writing library                  : LAME3.98.2

Screen : 
http://img148.imageshack.us/img148/9633/soulsurfer2011s1.jpg 
http://img846.imageshack.us/img846/9061/soulsurfer2011s2.jpg 
http://img5.imageshack.us/img5/6365/soulsurfer2011s3.jpg 
http://img24.imageshack.us/img24/7024/soulsurfer2011s4.jpg 
http://img199.imageshack.us/img199/1991/soulsurfer2011s5.jpg